<?xml version="1.0" encoding="utf-8"?>
<!-- Generator: Adobe Illustrator 24.1.0, SVG Export Plug-In . SVG Version: 6.00 Build 0)  -->
<svg version="1.1" id="Layer_1" xmlns="http://www.w3.org/2000/svg" xmlns:xlink="http://www.w3.org/1999/xlink" x="0px" y="0px"
	 viewBox="0 0 26 23" style="enable-background:new 0 0 26 23;" xml:space="preserve">
<style type="text/css">
	.st0{opacity:0.4;}
	.st1{fill:#4D4D4D;}
</style>
<g class="st0">
	<path class="st1" d="M7.2,7.5l-2.8,2.8l7.7,7.8L26,4.2l-2.8-2.8l-11,11.1L7.2,7.5z"/>
	<path class="st1" d="M20.9,20c0,0.5-0.5,1-1,1H3c-0.5,0-1-0.5-1-1V3c0-0.5,0.5-1,1-1h16.8l1.6-1.6c-0.4-0.3-1-0.4-1.5-0.4H3
		C1.3,0,0,1.3,0,3v17c0,1.6,1.3,3,3,3h16.9c1.6,0,3-1.4,3-3v-9.8l-2,2V20z"/>
</g>
</svg>
