<svg width="79" height="79" fill="none" xmlns="http://www.w3.org/2000/svg"><path fill-rule="evenodd" clip-rule="evenodd" d="M39.66.21a39.12 39.12 0 1 1 0 78.25 39.12 39.12 0 0 1 0-78.25z" fill="#fff"/><path fill-rule="evenodd" clip-rule="evenodd" d="M39.66.21a39.12 39.12 0 1 1 0 78.25 39.12 39.12 0 0 1 0-78.25z" fill="#E1E1E1"/><path fill-rule="evenodd" clip-rule="evenodd" d="M32 29h15a3 3 0 0 1 3 3v15a3 3 0 0 1-3 3H32a3 3 0 0 1-3-3V32a3 3 0 0 1 3-3zm11 10.5a3.5 3.5 0 1 0-7 0 3.5 3.5 0 0 0 7 0zM32 47v-9h1.18a6.5 6.5 0 1 0 12.64 0H47v9H32zm11-11h4v-4h-4v4z" fill="#fff"/></svg>